<svg width="22" height="21" viewBox="0 0 22 21" fill="none" xmlns="http://www.w3.org/2000/svg">
<path d="M20.75 12.25C21.3023 12.25 21.75 12.6977 21.75 13.25C21.75 13.8023 21.3023 14.25 20.75 14.25L20.75 12.25ZM1.25 14.25C0.697716 14.25 0.25 13.8023 0.25 13.25C0.25 12.6977 0.697716 12.25 1.25 12.25L1.25 14.25ZM9.75611 2.85687L10.754 2.79192L9.75611 2.85687ZM6.7801 2.70523L7.76622 2.87127L6.7801 2.70523ZM9.72037 17.7054L8.75823 2.92181L10.754 2.79192L11.7161 17.5755L9.72037 17.7054ZM12.7107 17.6091L13.99 8.00996L15.9725 8.27417L14.6932 17.8733L12.7107 17.6091ZM17.4225 7.81671L18.4361 11.8713L16.4958 12.3563L15.4822 8.30178L17.4225 7.81671ZM18.9212 12.25L20.75 12.25L20.75 14.25L18.9212 14.25L18.9212 12.25ZM7.76622 2.87127L6.20136 12.1651L4.22912 11.833L5.79398 2.53919L7.76622 2.87127ZM3.73606 14.25L1.25 14.25L1.25 12.25L3.73606 12.25L3.73606 14.25ZM18.4361 11.8713C18.4917 12.0938 18.6917 12.25 18.9212 12.25L18.9212 14.25C17.774 14.25 16.774 13.4693 16.4958 12.3563L18.4361 11.8713ZM13.99 8.00996C14.245 6.09704 16.9544 5.94451 17.4225 7.81671L15.4822 8.30178C15.4912 8.33782 15.5255 8.40106 15.5928 8.44663C15.6498 8.48517 15.7026 8.49278 15.7388 8.49075C15.7749 8.48872 15.8265 8.47522 15.8788 8.43053C15.9406 8.37768 15.9676 8.31099 15.9725 8.27417L13.99 8.00996ZM6.20136 12.1651C5.9987 13.3687 4.95659 14.25 3.73606 14.25L3.73606 12.25C3.98017 12.25 4.18859 12.0737 4.22912 11.833L6.20136 12.1651ZM11.7161 17.5755C11.7288 17.7701 11.7984 17.8656 11.861 17.9206C11.9366 17.9871 12.0552 18.0379 12.1982 18.0427C12.3412 18.0476 12.463 18.0049 12.543 17.9436C12.6091 17.8929 12.6849 17.8024 12.7107 17.6091L14.6932 17.8733C14.2943 20.8663 9.91646 20.7184 9.72037 17.7054L11.7161 17.5755ZM8.75823 2.92181C8.7459 2.73237 8.67826 2.63678 8.61572 2.58061C8.54098 2.51348 8.4247 2.46207 8.28473 2.45493C8.14475 2.4478 8.02385 2.48713 7.94267 2.54632C7.87475 2.59583 7.79774 2.68406 7.76622 2.87127L5.79398 2.53919C6.28675 -0.387372 10.5613 -0.169599 10.754 2.79192L8.75823 2.92181Z" fill="#00091A"/>
</svg>
