<svg xmlns="http://www.w3.org/2000/svg" width="379" height="380"><path d="M168.191 2.052C121.007 6.271 75.746 28.471 46.79 61.598 7.655 106.371-8.069 170.079 4.547 232.756c15.784 78.418 75.662 134.245 155.254 144.752 14.755 1.948 44.65 1.935 59.898-.025 53.313-6.855 100.165-35.472 128.023-78.196 15.572-23.88 25.763-53.229 29.385-84.621 1.714-14.857.635-49.443-1.972-63.232-7.512-39.718-23.684-71.187-50.073-97.434C297.494 26.58 263.037 9.549 223 3.554c-13.065-1.956-41.129-2.726-54.809-1.502" fill="undefined" fill-rule="evenodd"/></svg>