<?xml version="1.0" standalone="no"?>
<!DOCTYPE svg PUBLIC "-//W3C//DTD SVG 20010904//EN"
 "http://www.w3.org/TR/2001/REC-SVG-20010904/DTD/svg10.dtd">
<svg version="1.0" xmlns="http://www.w3.org/2000/svg"
 width="700.000000pt" height="700.000000pt" viewBox="0 0 700.000000 700.000000"
 preserveAspectRatio="xMidYMid meet">
<metadata>
Created by potrace 1.14, written by Peter Selinger 2001-2017
</metadata>
<g transform="translate(0.000000,700.000000) scale(0.100000,-0.100000)"
fill="#000000" stroke="none">
<path d="M3120 6985 c-831 -105 -1534 -446 -2106 -1020 -584 -588 -931 -1343
-1005 -2185 -15 -168 -6 -561 16 -720 108 -791 447 -1482 1000 -2035 540 -540
1213 -877 1990 -996 179 -27 599 -37 797 -19 692 62 1328 317 1875 752 155
122 426 392 547 543 409 512 656 1102 743 1770 25 198 25 652 0 850 -87 669
-333 1254 -743 1770 -112 141 -397 425 -539 539 -498 396 -1054 637 -1700 736
-185 29 -695 37 -875 15z m1472 -1544 c224 -15 409 -29 411 -32 2 -2 -61 -170
-140 -374 -78 -203 -142 -379 -140 -390 2 -11 166 -299 365 -639 199 -340 362
-625 362 -634 0 -28 -142 -737 -150 -745 -3 -4 -161 -36 -349 -70 l-342 -63
-52 -119 -52 -119 -220 -144 c-121 -78 -279 -181 -351 -227 l-130 -85 -745
-179 c-409 -99 -745 -178 -746 -177 -1 1 -99 330 -218 731 l-217 730 17 345
c9 190 20 381 24 425 l7 80 72 96 c40 53 72 101 72 107 0 7 -52 157 -116 334
-69 194 -112 328 -107 335 4 7 134 123 288 259 l280 246 736 -5 736 -4 119
173 c110 160 121 173 149 173 17 0 213 -12 437 -28z"/>
<path d="M4194 4927 l-111 -162 -766 -2 -766 -2 -141 -123 c-77 -67 -140 -126
-140 -130 0 -6 183 -522 208 -588 9 -24 0 -39 -93 -163 l-102 -136 -6 -93 c-4
-51 -12 -201 -18 -333 l-12 -240 158 -535 c87 -294 159 -536 160 -538 3 -3
1038 244 1079 258 26 9 521 326 557 357 9 7 45 82 80 165 35 83 69 152 74 154
6 2 152 30 325 62 l314 57 38 189 c25 127 35 194 28 205 -5 10 -176 302 -380
651 l-370 633 89 231 89 231 -27 6 c-14 4 -55 7 -91 7 l-65 1 -111 -162z"/>
</g>
</svg>
