<svg xmlns="http://www.w3.org/2000/svg" xmlns:xlink="http://www.w3.org/1999/xlink" version="1.1" x="0px" y="0px" viewBox="0 0 32 32" style="fill: #fff;enable-background:new 0 0 32 32;" xml:space="preserve"><g><path d="M28,31H4c-1.654,0-3-1.346-3-3V15c0-0.553,0.447-1,1-1s1,0.447,1,1v13c0,0.552,0.448,1,1,1h24c0.552,0,1-0.448,1-1V15   c0-0.553,0.447-1,1-1s1,0.447,1,1v13C31,29.654,29.654,31,28,31z"/></g><g><path d="M2,16c-0.269,0-0.536-0.107-0.732-0.319c-0.376-0.405-0.353-1.038,0.052-1.413l4-3.714   c0.403-0.376,1.037-0.354,1.413,0.052s0.353,1.038-0.052,1.413l-4,3.714C2.488,15.911,2.244,16,2,16z"/></g><g><path d="M21.385,8c-0.244,0-0.488-0.089-0.681-0.268L16,3.364l-4.704,4.368c-0.405,0.374-1.039,0.353-1.413-0.052   C9.507,7.275,9.53,6.643,9.935,6.268l5.385-5c0.385-0.357,0.977-0.357,1.361,0l5.385,5c0.404,0.375,0.428,1.008,0.052,1.413   C21.921,7.893,21.653,8,21.385,8z"/></g><g><path d="M30,16c-0.244,0-0.488-0.089-0.681-0.268l-4-3.714c-0.404-0.375-0.428-1.008-0.052-1.413   c0.374-0.405,1.009-0.428,1.413-0.052l4,3.714c0.404,0.375,0.428,1.008,0.052,1.413C30.536,15.893,30.269,16,30,16z"/></g><g><path d="M25.552,28.014c-0.205,0-0.412-0.063-0.591-0.194L16,21.24l-8.961,6.579c-0.448,0.327-1.072,0.229-1.397-0.214   c-0.327-0.445-0.231-1.071,0.214-1.397l9.553-7.014c0.352-0.26,0.832-0.26,1.184,0l9.553,7.014   c0.445,0.326,0.541,0.952,0.214,1.397C26.163,27.872,25.859,28.014,25.552,28.014z"/></g><g><path d="M20.295,23.647c-0.296,0-0.589-0.131-0.786-0.381c-0.342-0.434-0.268-1.062,0.166-1.404l9.706-7.647   c0.436-0.342,1.063-0.267,1.404,0.166c0.342,0.434,0.268,1.062-0.166,1.404l-9.706,7.647   C20.729,23.577,20.512,23.647,20.295,23.647z"/></g><g><path d="M11.705,23.647c-0.217,0-0.435-0.07-0.618-0.215l-9.706-7.647c-0.434-0.342-0.508-0.971-0.166-1.404   c0.342-0.433,0.972-0.508,1.404-0.166l9.706,7.647c0.434,0.342,0.508,0.971,0.166,1.404C12.294,23.517,12.001,23.647,11.705,23.647   z"/></g><g><path d="M26,19.151c-0.553,0-1-0.447-1-1V8H7v10.151c0,0.553-0.447,1-1,1s-1-0.447-1-1V7c0-0.553,0.447-1,1-1h20   c0.553,0,1,0.447,1,1v11.151C27,18.704,26.553,19.151,26,19.151z"/></g><g><path d="M22,13H10c-0.553,0-1-0.447-1-1s0.447-1,1-1h12c0.553,0,1,0.447,1,1S22.553,13,22,13z"/></g><g><path d="M22,17H10c-0.553,0-1-0.447-1-1s0.447-1,1-1h12c0.553,0,1,0.447,1,1S22.553,17,22,17z"/></g></svg>