<svg xmlns="http://www.w3.org/2000/svg" xmlns:xlink="http://www.w3.org/1999/xlink" version="1.1" x="0px" y="0px" viewBox="0 0 32 32" style="fill: #fff; enable-background:new 0 0 32 32;" xml:space="preserve"><g><path d="M18,19h-4c-3.309,0-6-2.691-6-6V2c0-0.553,0.447-1,1-1h14c0.553,0,1,0.447,1,1v11C24,16.309,21.309,19,18,19z M10,3v10   c0,2.206,1.794,4,4,4h4c2.206,0,4-1.794,4-4V3H10z"/></g><g><path d="M23,31H9c-0.553,0-1-0.447-1-1s0.447-1,1-1c3.331,0,4.776-8.209,5.021-11.084c0.047-0.551,0.539-0.965,1.08-0.912   c0.459,0.038,0.819,0.382,0.899,0.813c0.08-0.432,0.44-0.774,0.898-0.813c0.555-0.057,1.035,0.36,1.081,0.911   C18.226,20.791,19.674,29,23,29c0.553,0,1,0.447,1,1S23.553,31,23,31z M12.643,29h6.715c-2.534-3.239-3.231-9.41-3.357-10.769   C15.874,19.59,15.177,25.761,12.643,29z"/></g><g><path d="M21,28H11c-0.553,0-1-0.447-1-1s0.447-1,1-1h10c0.553,0,1,0.447,1,1S21.553,28,21,28z"/></g><g><path d="M8.345,16.406c-0.982,0-2.11-0.415-3.224-1.207C3.612,14.127,2,12.198,2,10V5c0-0.553,0.447-1,1-1h12c0.553,0,1,0.447,1,1   s-0.447,1-1,1H4v4c0,1.347,1.145,2.763,2.279,3.569c1.055,0.749,1.981,0.934,2.392,0.79c0.523-0.182,1.092,0.094,1.273,0.615   s-0.094,1.092-0.615,1.273C9.023,16.354,8.693,16.406,8.345,16.406z"/></g><g><path d="M23.655,16.406c-0.349,0-0.679-0.052-0.984-0.158c-0.521-0.182-0.797-0.752-0.615-1.273   c0.182-0.521,0.751-0.796,1.273-0.615c0.409,0.143,1.337-0.041,2.392-0.79C26.855,12.763,28,11.347,28,10V6h-9   c-0.553,0-1-0.447-1-1s0.447-1,1-1h10c0.553,0,1,0.447,1,1v5c0,2.198-1.612,4.127-3.121,5.199   C25.766,15.991,24.638,16.406,23.655,16.406z"/></g></svg>