<?xml version="1.0" encoding="UTF-8"?>
<svg width="96px" height="58px" viewBox="0 0 96 58" version="1.1" xmlns="http://www.w3.org/2000/svg" xmlns:xlink="http://www.w3.org/1999/xlink">
    <!-- Generator: Sketch 62 (91390) - https://sketch.com -->
    <title>Group</title>
    <desc>Created with Sketch.</desc>
    <g id="Page-1" stroke="none" stroke-width="1" fill="none" fill-rule="evenodd">
        <g id="Group-2" transform="translate(-449.000000, -420.000000)">
            <g id="Group" transform="translate(449.000000, 420.000000)">
                <path d="M91.2,8.55 C93.4036162,8.55 95.19,10.3363838 95.19,12.54 C95.19,14.7436162 93.4036162,16.53 91.2,16.53 L68.4,16.53 C70.6036162,16.53 72.39,18.3163838 72.39,20.52 C72.39,22.7236162 70.6036162,24.51 68.4,24.51 L80.94,24.51 C83.1436162,24.51 84.93,26.2963838 84.93,28.5 C84.93,30.7036162 83.1436162,32.49 80.94,32.49 L75.1408696,32.49 C72.362397,32.49 70.11,34.2763838 70.11,36.48 C70.11,37.9490774 71.25,39.2790774 73.53,40.47 C75.7336162,40.47 77.52,42.2563838 77.52,44.46 C77.52,46.6636162 75.7336162,48.45 73.53,48.45 L26.22,48.45 C24.0163838,48.45 22.23,46.6636162 22.23,44.46 C22.23,42.2563838 24.0163838,40.47 26.22,40.47 L3.99,40.47 C1.78638385,40.47 0,38.6836162 0,36.48 C0,34.2763838 1.78638385,32.49 3.99,32.49 L26.79,32.49 C28.9936162,32.49 30.78,30.7036162 30.78,28.5 C30.78,26.2963838 28.9936162,24.51 26.79,24.51 L12.54,24.51 C10.3363838,24.51 8.55,22.7236162 8.55,20.52 C8.55,18.3163838 10.3363838,16.53 12.54,16.53 L35.34,16.53 C33.1363838,16.53 31.35,14.7436162 31.35,12.54 C31.35,10.3363838 33.1363838,8.55 35.34,8.55 L91.2,8.55 Z M91.2,24.51 C93.4036162,24.51 95.19,26.2963838 95.19,28.5 C95.19,30.7036162 93.4036162,32.49 91.2,32.49 C88.9963838,32.49 87.21,30.7036162 87.21,28.5 C87.21,26.2963838 88.9963838,24.51 91.2,24.51 Z" id="Background" fill="#F3F7FF"></path>
                <path d="M63.6605687,10.0737651 L64.2103901,49.1020389 L64.2103901,53.0107693 C64.2103901,54.2699786 63.1895994,55.2907693 61.9303901,55.2907693 L28.3003901,55.2907693 C27.0411809,55.2907693 26.0203901,54.2699786 26.0203901,53.0107693 L26.0203901,10.8427636 C26.0203901,10.213159 26.5307855,9.70276357 27.1603901,9.70276357 C27.1643673,9.70276357 27.1683444,9.70276357 27.1723213,9.70276357 L29.9588062,9.73199069 M32.2119899,9.75557359 L34.8428627,9.78310957" id="Shape" stroke="#75A4FE" stroke-width="1.425" fill="#FFFFFF" stroke-linecap="round" transform="translate(45.115390, 32.387555) rotate(-7.000000) translate(-45.115390, -32.387555) "></path>
                <path d="M61.9594213,12.2859686 L62.4517987,47.6553416 L62.4517987,51.1976286 C62.4517987,52.338787 61.5376577,53.2638786 60.4100077,53.2638786 L30.2935898,53.2638786 C29.1659397,53.2638786 28.2517987,52.338787 28.2517987,51.1976286 L28.2517987,13.0788786 C28.2517987,12.449274 28.7621941,11.9388786 29.3917987,11.9388786 L33.1175024,11.9388786 L33.1175024,11.9388786" id="Rectangle" fill="#E8F0FE" transform="translate(45.351799, 32.601379) rotate(-7.000000) translate(-45.351799, -32.601379) "></path>
                <path d="M69.9229687,47.1675 L36.2929688,47.1675 C35.8601156,47.1675 35.4682406,46.9920516 35.1845789,46.7083899 C34.9009172,46.4247282 34.7254687,46.0328532 34.7254687,45.6 L34.7254687,2.28 C34.7254687,1.84714683 34.9009172,1.45527183 35.1845789,1.17161012 C35.4682406,0.887948414 35.8601156,0.7125 36.2929688,0.7125 L62.2603227,0.7125 C62.6758815,0.7125 63.0744342,0.877513733 63.3683696,1.17126725 L71.0310157,8.82917335 C71.3251887,9.12316446 71.4904687,9.5220112 71.4904687,9.9379061 L71.4904687,45.6 C71.4904687,46.0328532 71.3150203,46.4247282 71.0313586,46.7083899 C70.7476969,46.9920516 70.3558219,47.1675 69.9229687,47.1675 Z" id="Rectangle" stroke="#75A4FE" stroke-width="1.425" fill="#FFFFFF"></path>
                <path d="M62.5129687,1.36961426 L62.5129687,7.98 C62.5129687,8.92440692 63.2785618,9.69 64.2229687,9.69 L68.7451172,9.69" id="Shape" stroke="#75A4FE" stroke-width="1.425" stroke-linecap="round" stroke-linejoin="round"></path>
                <path d="M40.8529687,9.69 L55.6729687,9.69 M40.8529687,16.53 L65.3629687,16.53 M40.8529687,23.94 L65.3629687,23.94 M40.8529687,31.35 L65.3629687,31.35 M40.8529687,38.76 L55.6729687,38.76" id="lines" stroke="#A4C3FE" stroke-width="1.425" stroke-linecap="round" stroke-linejoin="round"></path>
            </g>
        </g>
    </g>
</svg>