<svg xmlns="http://www.w3.org/2000/svg" xmlns:xlink="http://www.w3.org/1999/xlink" version="1.1" x="0px" y="0px" viewBox="0 0 32 32" style="fill: #fff;enable-background:new 0 0 32 32;" xml:space="preserve"><g><path d="M30,24H2c-0.552,0-1-0.447-1-1V4c0-0.553,0.448-1,1-1h28c0.552,0,1,0.447,1,1v19C31,23.553,30.552,24,30,24z M3,22h26V5H3   V22z"/></g><g><path d="M19,29h-6c-0.552,0-1-0.447-1-1v-5c0-0.553,0.448-1,1-1h6c0.552,0,1,0.447,1,1v5C20,28.553,19.552,29,19,29z M14,27h4v-3   h-4V27z"/></g><g><path d="M19,29h-6c-0.552,0-1-0.447-1-1v-5c0-0.553,0.448-1,1-1h6c0.552,0,1,0.447,1,1v5C20,28.553,19.552,29,19,29z M14,27h4v-3   h-4V27z"/></g><g><path d="M24,29H7c-0.552,0-1-0.447-1-1s0.448-1,1-1h17c0.552,0,1,0.447,1,1S24.552,29,24,29z"/></g><g><path d="M29,20.2H2c-0.552,0-1-0.447-1-1s0.448-1,1-1h27c0.552,0,1,0.447,1,1S29.552,20.2,29,20.2z"/></g><g><path d="M7.001,16c-0.367,0-0.72-0.202-0.896-0.553c-0.247-0.494-0.047-1.095,0.447-1.342l8-4c0.452-0.226,1-0.08,1.279,0.34   l1.51,2.266l5.051-2.525l-0.71-0.237c-0.524-0.174-0.807-0.74-0.632-1.265c0.174-0.523,0.739-0.808,1.265-0.632l3,1   c0.383,0.128,0.652,0.474,0.681,0.877c0.029,0.404-0.188,0.785-0.55,0.966l-8,4c-0.451,0.226-1,0.08-1.279-0.34l-1.51-2.266   l-7.21,3.605C7.304,15.966,7.151,16,7.001,16z"/></g><g><path d="M24,14c-0.104,0-0.211-0.017-0.316-0.052c-0.524-0.174-0.807-0.74-0.632-1.265l1-3c0.174-0.523,0.74-0.807,1.265-0.632   c0.524,0.174,0.807,0.74,0.632,1.265l-1,3C24.809,13.735,24.419,14,24,14z"/></g></svg>