<svg xmlns="http://www.w3.org/2000/svg" xmlns:xlink="http://www.w3.org/1999/xlink" version="1.1" x="0px" y="0px" viewBox="0 0 32 32" style="fill: #FFF; enable-background:new 0 0 32 32;" xml:space="preserve"><g><path d="M27,25c-0.092,0-0.185-0.013-0.274-0.038l-14-4C12.296,20.839,12,20.446,12,20V8c0-0.446,0.296-0.839,0.726-0.962l14-4   c0.301-0.085,0.626-0.024,0.877,0.163C27.853,3.391,28,3.687,28,4v20c0,0.313-0.147,0.609-0.397,0.799   C27.427,24.931,27.215,25,27,25z M14,19.246l12,3.428V5.326L14,8.754V19.246z"/></g><g><path d="M28.5,27c-1.379,0-2.5-1.121-2.5-2.5v-21C26,2.121,27.121,1,28.5,1S31,2.121,31,3.5v21C31,25.879,29.879,27,28.5,27z    M28.5,3C28.225,3,28,3.225,28,3.5v21c0,0.275,0.225,0.5,0.5,0.5s0.5-0.225,0.5-0.5v-21C29,3.225,28.775,3,28.5,3z"/></g><g><path d="M13,21H7c-3.309,0-6-2.691-6-6v-2c0-3.309,2.691-6,6-6h6c0.553,0,1,0.447,1,1v12C14,20.553,13.553,21,13,21z M7,9   c-2.206,0-4,1.794-4,4v2c0,2.206,1.794,4,4,4h5V9H7z"/></g><g><path d="M9,31H3c-0.332,0-0.642-0.165-0.828-0.439c-0.186-0.274-0.224-0.624-0.101-0.932l4-10C6.224,19.249,6.591,19,7,19h6   c0.332,0,0.642,0.165,0.828,0.439c0.186,0.274,0.224,0.624,0.101,0.932l-4,10C9.776,30.751,9.409,31,9,31z M4.477,29h3.847l3.2-8   H7.677L4.477,29z"/></g><g><path d="M9,13H7c-0.553,0-1-0.447-1-1s0.447-1,1-1h2c0.553,0,1,0.447,1,1S9.553,13,9,13z"/></g><g><path d="M9,17H7c-0.553,0-1-0.447-1-1s0.447-1,1-1h2c0.553,0,1,0.447,1,1S9.553,17,9,17z"/></g></svg>