<svg xmlns="http://www.w3.org/2000/svg" xmlns:xlink="http://www.w3.org/1999/xlink" version="1.1" x="0px" y="0px" viewBox="0 0 32 32" style="fill: #fff;enable-background:new 0 0 32 32;" xml:space="preserve"><g><path d="M16,31c-0.139,0-0.276-0.028-0.406-0.086C6.413,26.834,3,23.604,3,19V5c0-0.553,0.447-1,1-1c7.579,0,11.362-2.772,11.4-2.8   c0.355-0.268,0.844-0.268,1.199,0C16.635,1.226,20.482,4,28,4c0.553,0,1,0.447,1,1v14c0,4.604-3.413,7.834-12.594,11.914   C16.276,30.972,16.139,31,16,31z M5,5.984V19c0,3.053,1.854,5.785,11,9.904c9.146-4.119,11-6.852,11-9.904V5.984   c-5.977-0.184-9.638-1.98-11-2.793C14.638,4.004,10.977,5.801,5,5.984z"/></g><g><path d="M16,26.602c-0.146,0-0.292-0.032-0.427-0.096C7.662,22.77,7,20.673,7,19V8.768c0-0.507,0.379-0.933,0.882-0.993   c3.555-0.424,6.146-1.378,7.694-2.103c0.268-0.127,0.58-0.127,0.848,0c1.548,0.725,4.14,1.679,7.694,2.103   C24.621,7.835,25,8.261,25,8.768V19c0,1.673-0.662,3.77-8.573,7.506C16.292,26.569,16.146,26.602,16,26.602z M9,9.643V19   c0,0.531,0,2.126,7,5.494c7-3.368,7-4.963,7-5.494V9.643c-3.08-0.456-5.435-1.275-7-1.967C14.435,8.367,12.08,9.187,9,9.643z"/></g><g><path d="M15,21c-0.265,0-0.519-0.104-0.707-0.293l-4-4c-0.391-0.391-0.391-1.023,0-1.414s1.023-0.391,1.414,0l3.185,3.185   L20.2,11.4c0.331-0.442,0.959-0.53,1.399-0.2c0.442,0.331,0.532,0.958,0.2,1.399l-6,8c-0.174,0.232-0.439,0.377-0.729,0.397   C15.047,20.999,15.023,21,15,21z"/></g></svg>