<?xml version="1.0" encoding="UTF-8"?>
<svg width="94px" height="102px" viewBox="0 0 94 102" version="1.1" xmlns="http://www.w3.org/2000/svg" xmlns:xlink="http://www.w3.org/1999/xlink">
    <!-- Generator: Sketch 62 (91390) - https://sketch.com -->
    <title>noun_voting_981691</title>
    <desc>Created with Sketch.</desc>
    <g id="Page-1" stroke="none" stroke-width="1" fill="none" fill-rule="evenodd">
        <g id="Artboard" transform="translate(-7487.000000, -2893.000000)" fill="#FFFFFF" fill-rule="nonzero" stroke="#FFFFFF">
            <g id="noun_voting_981691" transform="translate(7487.000000, 2893.000000)">
                <path d="M93.115,24.507 L91.615,21.909 L85.113,25.663 L74.368,7.052 L80.621,3.442 L79.121,0.844 L70.27,5.954 L72.065,9.062 C70.63,9.163 69.337,9.221 68.149,9.221 C64.587,9.221 61.752,8.702 57.107,7.615 C56.58,7.491 56.041,7.428 55.506,7.428 C50.881,7.428 47.788,11.888 46.673,13.806 C44.535,17.482 43.852,18.675 43.171,19.865 C42.574,20.907 41.979,21.947 40.402,24.661 L38.217,23.365 L24.128,44.644 L14.524,44.644 L0.897,55.299 L0.9,55.303 L0.885,55.303 L0.885,67.49 L6.413,67.49 L6.413,101.156 L9.413,101.156 L9.413,67.49 L66.601,67.49 L66.601,101.156 L69.601,101.156 L69.601,67.49 L75.134,67.49 L75.134,55.303 L75.12,55.303 L75.135,55.283 L61.446,44.644 L59.167,44.644 L63.179,38.165 L60.037,36.303 L60.202,36.237 C62.05,35.488 63.752,35.241 65.703,35.421 C66.071,35.454 66.446,35.472 66.827,35.472 C69.577,35.472 72.21,34.548 74.05,32.937 C74.553,32.498 75.008,32.155 75.571,31.793 L82.585,27.282 L84.017,29.762 L93.115,24.507 Z M72.134,64.49 L3.885,64.49 L3.885,58.302 L72.134,58.302 L72.134,64.49 Z M60.417,47.644 L70.27,55.303 L5.763,55.303 L15.557,47.644 L22.142,47.644 L20.81,49.656 L17.751,49.656 L17.751,52.656 L58.267,52.656 L58.267,49.656 L56.064,49.656 L57.31,47.644 L60.417,47.644 Z M59.019,39.186 L52.619,49.52 L24.51,49.501 L39.145,27.402 L40.921,28.456 L43.608,30.287 C41.68,31.924 40.92,34.676 41.92,37.144 C42.846,39.428 45.042,40.904 47.515,40.904 C48.288,40.904 49.045,40.757 49.765,40.465 L56.543,37.718 L59.019,39.186 Z M73.947,29.268 C73.254,29.714 72.694,30.135 72.074,30.677 C70.773,31.817 68.86,32.47 66.827,32.47 C66.538,32.47 66.253,32.456 65.974,32.431 C63.509,32.207 61.373,32.524 59.075,33.455 L48.638,37.684 C47.132,38.292 45.302,37.501 44.7,36.017 C44.074,34.472 44.822,32.706 46.366,32.079 L50.349,30.463 L60.453,25.836 C60.849,25.655 61.146,25.311 61.268,24.892 C61.389,24.474 61.324,24.024 61.086,23.658 L60.802,23.22 C59.861,21.761 58.389,20.874 56.66,20.725 C56.487,20.709 56.315,20.703 56.146,20.703 C54.598,20.703 53.215,21.312 52.147,22.465 C51.209,23.476 50.375,24.954 49.705,26.143 C49.391,26.7 49.066,27.273 48.842,27.595 C48.391,27.865 47.184,28.409 46.515,28.64 L42.966,26.221 C44.57,23.458 45.171,22.409 45.775,21.358 C46.454,20.171 47.135,18.982 49.267,15.316 C51.045,12.256 53.378,10.43 55.506,10.43 C55.811,10.43 56.118,10.466 56.422,10.536 C61.193,11.654 64.316,12.223 68.149,12.223 C69.803,12.223 71.64,12.114 73.727,11.944 L81.081,24.68 L73.947,29.268 Z M53.41,25.764 C53.72,25.282 54.038,24.838 54.348,24.503 C54.841,23.972 55.447,23.702 56.148,23.702 C56.231,23.702 56.315,23.705 56.401,23.713 C56.743,23.743 57.053,23.828 57.331,23.968 L53.41,25.764 Z" id="Shape"></path>
            </g>
        </g>
    </g>
</svg>